<svg width="1024" height="1024" viewBox="0 0 1024 1024" fill="none" xmlns="http://www.w3.org/2000/svg">
<rect width="1024" height="1024" rx="192" fill="#00291B"/>
<g clip-path="url(#clip0_4634_5096)">
<g filter="url(#filter0_i_4634_5096)">
<path fill-rule="evenodd" clip-rule="evenodd" d="M477.144 864H415.438C299.187 702.11 240.374 574.792 240.374 432.053C240.374 359.385 268.638 291.072 319.943 239.682C371.261 188.303 439.477 160 512.043 160C584.608 160 652.837 188.291 704.142 239.682C755.448 291.072 783.711 359.385 783.711 432.053C783.711 474.396 772.022 513.893 749.878 546.24C714.673 597.743 656.538 626.097 586.178 626.097C526.698 626.097 466.968 598.38 418.005 548.05C373.965 502.774 340.991 441.275 327.545 379.315L322.423 355.728C322.273 355.485 322.121 355.248 321.968 355.011C321.815 354.774 321.663 354.537 321.513 354.293L321.488 354.156L346.873 349.539C349.465 349.064 411.264 338.195 491.842 353.757C539.272 362.929 583.574 379.389 623.502 402.689C660.962 424.54 694.559 452.457 723.782 485.927C723.751 486.016 723.722 486.105 723.694 486.192C723.666 486.276 723.638 486.359 723.608 486.439L724.194 486.351C724.256 486.176 724.306 486.002 724.368 485.84C724.443 485.927 724.518 486.011 724.592 486.095C724.667 486.18 724.742 486.264 724.817 486.351C730.786 469.591 733.864 451.271 733.864 432.053C733.864 372.713 710.797 316.917 668.9 274.974C627.003 233.03 571.299 209.918 512.043 209.918C452.799 209.918 397.082 233.03 355.185 274.986C313.288 316.93 290.221 372.725 290.221 432.053C290.221 570.449 353.036 696.548 477.144 864Z" fill="white"/>
<path fill-rule="evenodd" clip-rule="evenodd" d="M477.144 864H415.438C299.187 702.11 240.374 574.792 240.374 432.053C240.374 359.385 268.638 291.072 319.943 239.682C371.261 188.303 439.477 160 512.043 160C584.608 160 652.837 188.291 704.142 239.682C755.448 291.072 783.711 359.385 783.711 432.053C783.711 474.396 772.022 513.893 749.878 546.24C714.673 597.743 656.538 626.097 586.178 626.097C526.698 626.097 466.968 598.38 418.005 548.05C373.965 502.774 340.991 441.275 327.545 379.315L322.423 355.728C322.273 355.485 322.121 355.248 321.968 355.011C321.815 354.774 321.663 354.537 321.513 354.293L321.488 354.156L346.873 349.539C349.465 349.064 411.264 338.195 491.842 353.757C539.272 362.929 583.574 379.389 623.502 402.689C660.962 424.54 694.559 452.457 723.782 485.927C723.751 486.016 723.722 486.105 723.694 486.192C723.666 486.276 723.638 486.359 723.608 486.439L724.194 486.351C724.256 486.176 724.306 486.002 724.368 485.84C724.443 485.927 724.518 486.011 724.592 486.095C724.667 486.18 724.742 486.264 724.817 486.351C730.786 469.591 733.864 451.271 733.864 432.053C733.864 372.713 710.797 316.917 668.9 274.974C627.003 233.03 571.299 209.918 512.043 209.918C452.799 209.918 397.082 233.03 355.185 274.986C313.288 316.93 290.221 372.725 290.221 432.053C290.221 570.449 353.036 696.548 477.144 864Z" fill="url(#paint0_linear_4634_5096)"/>
</g>
<path d="M724.192 486.352C724.254 486.189 724.304 486.015 724.366 485.84C695.143 452.37 661.546 424.453 624.086 402.602C584.158 379.303 539.856 362.842 492.426 353.67C411.848 338.108 350.049 348.977 347.457 349.452L322.072 354.069L322.097 354.206C475.391 598.617 695.854 566.208 724.192 486.352Z" fill="#17AD49"/>
</g>
<defs>
<filter id="filter0_i_4634_5096" x="240.374" y="154.825" width="548.512" height="709.175" filterUnits="userSpaceOnUse" color-interpolation-filters="sRGB">
<feFlood flood-opacity="0" result="BackgroundImageFix"/>
<feBlend mode="normal" in="SourceGraphic" in2="BackgroundImageFix" result="shape"/>
<feColorMatrix in="SourceAlpha" type="matrix" values="0 0 0 0 0 0 0 0 0 0 0 0 0 0 0 0 0 0 127 0" result="hardAlpha"/>
<feOffset dx="8.6244" dy="-8.6244"/>
<feGaussianBlur stdDeviation="2.58732"/>
<feComposite in2="hardAlpha" operator="arithmetic" k2="-1" k3="1"/>
<feColorMatrix type="matrix" values="0 0 0 0 0.0901961 0 0 0 0 0.678431 0 0 0 0 0.286274 0 0 0 0.35 0"/>
<feBlend mode="normal" in2="shape" result="effect1_innerShadow_4634_5096"/>
</filter>
<linearGradient id="paint0_linear_4634_5096" x1="982.754" y1="116.296" x2="1397.21" y2="890.703" gradientUnits="userSpaceOnUse">
<stop stop-color="#A5EB12"/>
<stop offset="1" stop-color="#3DBE3B"/>
</linearGradient>
<clipPath id="clip0_4634_5096">
<rect width="704" height="704" fill="white" transform="translate(160 160)"/>
</clipPath>
</defs>
</svg>
